<svg xmlns="http://www.w3.org/2000/svg" viewBox="0 0 96 96" role="img" aria-labelledby="title desc">
  <title id="title">Radio Passport Icon</title>
  <desc id="desc">A circular passport stamp with a globe waveform</desc>
  <defs>
    <radialGradient id="stamp-glow" cx="50%" cy="50%" r="62%">
      <stop offset="0%" stop-color="#5C9EAD" stop-opacity="0.85" />
      <stop offset="45%" stop-color="#013A63" stop-opacity="0.92" />
      <stop offset="100%" stop-color="#01213D" stop-opacity="1" />
    </radialGradient>
    <filter id="ink-bleed" x="-12%" y="-12%" width="124%" height="124%" color-interpolation-filters="sRGB">
      <feGaussianBlur in="SourceGraphic" stdDeviation="0.9" result="blur" />
      <feBlend in="SourceGraphic" in2="blur" mode="multiply" />
    </filter>
  </defs>
  <g filter="url(#ink-bleed)">
    <circle cx="48" cy="48" r="40" fill="url(#stamp-glow)" stroke="#F4EDE0" stroke-width="3" stroke-dasharray="6 4" />
    <circle cx="48" cy="48" r="30" fill="none" stroke="#D1495B" stroke-width="2" stroke-dasharray="3 5" stroke-linecap="round" opacity="0.9" />
    <path d="M22 48c6.2-8.8 13.5-13.2 22-13.2 8.5 0 15.8 4.4 22 13.2-6.2 8.8-13.5 13.2-22 13.2-8.5 0-15.8-4.4-22-13.2z" fill="none" stroke="#F4EDE0" stroke-width="2.4" stroke-linecap="round" stroke-linejoin="round" />
    <path d="M26 40.7c5.1 3.5 10.7 5.3 17.2 5.3s12.2-1.8 17.3-5.3M26 55.3c5.1-3.5 10.7-5.3 17.2-5.3s12.2 1.8 17.3 5.3" fill="none" stroke="#5C9EAD" stroke-width="2" stroke-linecap="round" opacity="0.85" />
    <circle cx="48" cy="48" r="6" fill="#D1495B" />
  </g>
</svg>
